<svg id="Camada_1" data-name="Camada 1" xmlns="http://www.w3.org/2000/svg" viewBox="0 0 1301.4 425.35"><defs><style>.cls-1{fill:#048bc9;}.cls-2{fill:#0066a0;}.cls-3{fill:#777878;}</style></defs><title>Prancheta 1 cópia 4</title><path class="cls-1" d="M277.52,172.2l27.07-27.07L356.8,92.91A73.85,73.85,0,0,1,461.25,197.34L409,249.55,356.8,301.78l-79.27,79.28a35.67,35.67,0,0,1-50.3,0l-79.29-79.28L95.72,249.55A73.84,73.84,0,0,1,200.16,145.12l27.08,27.07a35.66,35.66,0,0,0,50.29,0M448,4.15a101.29,101.29,0,0,0-71.73,29.64l.18.18L324,86.38c-39.52,39.53-104.19,39.53-143.71,0s-104.2-39.52-143.72,0A101.37,101.37,0,0,0,7,158.13v.25a101.34,101.34,0,0,0,29.66,71.73L108.46,302,217.57,411.08A48.82,48.82,0,0,0,252,425.35h.35a48.8,48.8,0,0,0,34.43-14.27L395.91,302l71.85-71.87,52.42-52.41-.19-.19C559.51,138,559.51,73.31,520,33.79A101.29,101.29,0,0,0,448.24,4.15Z"/><path class="cls-2" d="M56.64,106a74,74,0,0,0,0,104.43l39,39A73.84,73.84,0,0,1,200.16,145.13l13.13,13.12L161.07,106a74,74,0,0,0-104.43,0"/><path class="cls-2" d="M343.69,106,356.8,92.91Zm52.23-52.23L356.8,92.91A73.85,73.85,0,0,1,461.38,197.2l39-39A73.85,73.85,0,0,0,395.91,53.81"/><path class="cls-3" d="M733,326.3a25.12,25.12,0,0,1-9.67,13.27,27.68,27.68,0,0,1-16.52,5.14,27,27,0,0,1-16.13-5.14A24.94,24.94,0,0,1,681,326.3L638.68,182.22a16.74,16.74,0,0,1-.91-2.49,10.73,10.73,0,0,1-.52-2.46,9.43,9.43,0,0,1,2.68-6.73,8.86,8.86,0,0,1,6.65-2.84q7.51,0,9.31,6.73l43.39,146.21c1.2,3.78,3.72,5.67,7.53,5.67,4.54,0,7.19-1.78,7.89-5.33l43.75-146.91a8.57,8.57,0,0,1,3.23-4.43,9.07,9.07,0,0,1,5.74-2,9.47,9.47,0,0,1,6.82,2.84,9.13,9.13,0,0,1,2.85,6.73,11.05,11.05,0,0,1-.34,3.17Z"/><path class="cls-3" d="M1201.5,186.1a25.11,25.11,0,0,1,9.67-13.26,27.69,27.69,0,0,1,16.52-5.14,27,27,0,0,1,16.13,5.14,24.94,24.94,0,0,1,9.67,13.26l42.32,144.09a16.74,16.74,0,0,1,.91,2.49,10.61,10.61,0,0,1,.52,2.46,9.45,9.45,0,0,1-2.68,6.73,8.86,8.86,0,0,1-6.65,2.84q-7.51,0-9.31-6.73l-43.39-146.21c-1.2-3.78-3.72-5.67-7.53-5.67-4.54,0-7.19,1.77-7.89,5.32L1176,338.32a8.59,8.59,0,0,1-3.23,4.44,9,9,0,0,1-5.74,2,9.43,9.43,0,0,1-6.81-2.84,9.12,9.12,0,0,1-2.86-6.73,11.19,11.19,0,0,1,.34-3.18Z"/><path class="cls-3" d="M823,177.26a9.76,9.76,0,0,1,2.52-6.73,8.62,8.62,0,0,1,6.81-2.84,9.38,9.38,0,0,1,6.8,2.84,9.09,9.09,0,0,1,2.87,6.73V335.5a8.53,8.53,0,0,1-2.87,6.55,9.63,9.63,0,0,1-6.8,2.66,8.85,8.85,0,0,1-6.81-2.66A9.12,9.12,0,0,1,823,335.5Z"/><path class="cls-3" d="M930.38,184.08h-38.8a9,9,0,0,1-6.47-2.84,9.12,9.12,0,0,1-2.86-6.72,8.79,8.79,0,0,1,2.86-6.38,9,9,0,0,1,6.47-2.83h97.63a10.27,10.27,0,0,1,7.53,2.83,8.72,8.72,0,0,1,2.87,6.38,9,9,0,0,1-2.87,6.72,9.29,9.29,0,0,1-6.8,2.84H949V335.5a8.76,8.76,0,0,1-2.87,6.36,9,9,0,0,1-6.46,2.84,8.73,8.73,0,0,1-6.63-2.84,9,9,0,0,1-2.7-6.36Z"/><path class="cls-3" d="M1076.77,184.08H1038a9,9,0,0,1-6.47-2.84,9.12,9.12,0,0,1-2.86-6.72,8.79,8.79,0,0,1,2.86-6.38,9,9,0,0,1,6.47-2.83h97.63a10.27,10.27,0,0,1,7.53,2.83,8.72,8.72,0,0,1,2.87,6.38,9,9,0,0,1-2.87,6.72,9.29,9.29,0,0,1-6.8,2.84h-40.9V335.5a8.76,8.76,0,0,1-2.87,6.36,9,9,0,0,1-6.46,2.84,8.73,8.73,0,0,1-6.63-2.84,9,9,0,0,1-2.7-6.36Z"/></svg>