<svg version="1.2" overflow="visible" preserveAspectRatio="none" viewBox="0 0 202 62" xml:space="preserve" y="0px" x="0px" xmlns:xlink="http://www.w3.org/1999/xlink" xmlns="http://www.w3.org/2000/svg" id="Capa_1_1541023384902" width="150" height="45"><g transform="translate(1, 1)"><style type="text/css">
	.st0_1541023384902{opacity:0.6;fill:#FFFFFF;}
	.st1_1541023384902{opacity:0.9;fill:#FFFFFF;}
	.st2_1541023384902{opacity:0.7;fill:#FFFFFF;}
	.st3_1541023384902{fill:#FFFFFF;}
</style><g id="XMLID_54__1541023384902">
	<g id="XMLID_62__1541023384902">
		<path d="M29,5.7C15.6,5.7,4.8,16.5,4.8,29.8S15.6,53.9,29,53.9s24.1-10.8,24.1-24.1S42.3,5.7,29,5.7z&#10;&#9;&#9;&#9; M28.2,34.7c-1.3,0-2.4-1.1-2.4-2.4c0-1.3,1.1-2.4,2.4-2.4c1.3,0,2.4,1.1,2.4,2.4C30.6,33.6,29.5,34.7,28.2,34.7z M35.7,34.7&#10;&#9;&#9;&#9;c-1.3,0-2.4-1.1-2.4-2.4c0-1.3,1.1-2.4,2.4-2.4s2.4,1.1,2.4,2.4C38.1,33.6,37.1,34.7,35.7,34.7z M43.3,34.7&#10;&#9;&#9;&#9;c-1.3,0-2.4-1.1-2.4-2.4c0-1.3,1.1-2.4,2.4-2.4s2.4,1.1,2.4,2.4C45.7,33.6,44.6,34.7,43.3,34.7z" class="st0_1541023384902" id="XMLID_310__1541023384902" vector-effect="non-scaling-stroke"/>
		<path d="M36,3.7c-13,0-23.6,10.6-23.6,23.6c0,13,10.6,23.6,23.6,23.6s23.6-10.6,23.6-23.6&#10;&#9;&#9;&#9;C59.6,14.3,49,3.7,36,3.7z M28.2,34.7c-1.3,0-2.4-1.1-2.4-2.4c0-1.3,1.1-2.4,2.4-2.4c1.3,0,2.4,1.1,2.4,2.4&#10;&#9;&#9;&#9;C30.6,33.6,29.5,34.7,28.2,34.7z M35.7,34.7c-1.3,0-2.4-1.1-2.4-2.4c0-1.3,1.1-2.4,2.4-2.4s2.4,1.1,2.4,2.4&#10;&#9;&#9;&#9;C38.1,33.6,37.1,34.7,35.7,34.7z M43.3,34.7c-1.3,0-2.4-1.1-2.4-2.4c0-1.3,1.1-2.4,2.4-2.4s2.4,1.1,2.4,2.4&#10;&#9;&#9;&#9;C45.7,33.6,44.6,34.7,43.3,34.7z" class="st1_1541023384902" id="XMLID_305__1541023384902" vector-effect="non-scaling-stroke"/>
		<path d="M30.6,5.9C17.9,5.9,7.6,16.2,7.6,28.9C7.6,41.6,17.9,52,30.6,52c12.7,0,23.1-10.3,23.1-23.1&#10;&#9;&#9;&#9;C53.7,16.2,43.4,5.9,30.6,5.9z M28.2,34.7c-1.3,0-2.4-1.1-2.4-2.4c0-1.3,1.1-2.4,2.4-2.4c1.3,0,2.4,1.1,2.4,2.4&#10;&#9;&#9;&#9;C30.6,33.6,29.5,34.7,28.2,34.7z M35.7,34.7c-1.3,0-2.4-1.1-2.4-2.4c0-1.3,1.1-2.4,2.4-2.4s2.4,1.1,2.4,2.4&#10;&#9;&#9;&#9;C38.1,33.6,37.1,34.7,35.7,34.7z M43.3,34.7c-1.3,0-2.4-1.1-2.4-2.4c0-1.3,1.1-2.4,2.4-2.4s2.4,1.1,2.4,2.4&#10;&#9;&#9;&#9;C45.7,33.6,44.6,34.7,43.3,34.7z" class="st2_1541023384902" id="XMLID_224__1541023384902" vector-effect="non-scaling-stroke"/>
		<path d="M50.6,50c5.1-4.3,8.4-10.7,8.4-17.9c0-12.8-10.4-23.3-23.3-23.3c-12.8,0-23.3,10.4-23.3,23.3&#10;&#9;&#9;&#9;s10.4,23.3,23.3,23.3c2.3,0,4.6-0.3,6.7-1c5,2.2,12.8,1.4,16.8-0.8C54.7,53.4,51.8,52,50.6,50z M28.2,34.7c-1.3,0-2.4-1.1-2.4-2.4&#10;&#9;&#9;&#9;c0-1.3,1.1-2.4,2.4-2.4c1.3,0,2.4,1.1,2.4,2.4C30.6,33.6,29.5,34.7,28.2,34.7z M35.7,34.7c-1.3,0-2.4-1.1-2.4-2.4&#10;&#9;&#9;&#9;c0-1.3,1.1-2.4,2.4-2.4s2.4,1.1,2.4,2.4C38.1,33.6,37.1,34.7,35.7,34.7z M43.3,34.7c-1.3,0-2.4-1.1-2.4-2.4c0-1.3,1.1-2.4,2.4-2.4&#10;&#9;&#9;&#9;s2.4,1.1,2.4,2.4C45.7,33.6,44.6,34.7,43.3,34.7z" class="st1_1541023384902" id="XMLID_63__1541023384902" vector-effect="non-scaling-stroke"/>
	</g>
	<g id="XMLID_61__1541023384902">
		<path d="M87.7,23.7H84v11.6h-3.3V23.7h-3.7v-2.5h10.7V23.7z" class="st3_1541023384902" id="XMLID_706__1541023384902" vector-effect="non-scaling-stroke"/>
		<path d="M96.5,31L96.5,31l3.2-9.9h4.3v14.1h-3.3v-9.1l-0.1,0l-3.1,9.1h-2.2l-3-9l-0.1,0v8.9H89V21.2&#10;&#9;&#9;&#9;h4.3L96.5,31z" class="st3_1541023384902" id="XMLID_708__1541023384902" vector-effect="non-scaling-stroke"/>
		<path d="M115.9,35.3h-9.8v-2.1l4.3-4.8c0.6-0.7,1-1.2,1.3-1.8c0.3-0.5,0.4-1,0.4-1.3&#10;&#9;&#9;&#9;c0-0.5-0.1-1-0.4-1.3c-0.2-0.3-0.6-0.5-1.2-0.5c-0.5,0-0.9,0.2-1.2,0.6c-0.3,0.4-0.4,0.9-0.4,1.6h-3.2l0-0.1&#10;&#9;&#9;&#9;c0-1.3,0.4-2.4,1.3-3.3c0.9-0.9,2.1-1.4,3.5-1.4c1.5,0,2.7,0.4,3.6,1.1c0.8,0.8,1.3,1.8,1.3,3.1c0,0.9-0.2,1.7-0.7,2.4&#10;&#9;&#9;&#9;c-0.5,0.7-1.3,1.7-2.6,3l-1.7,2.1l0,0h5.4V35.3z" class="st3_1541023384902" id="XMLID_710__1541023384902" vector-effect="non-scaling-stroke"/>
	</g>
	<rect height="33.6" width="0.3" class="st3_1541023384902" y="13" x="68.5" id="XMLID_60__1541023384902" vector-effect="non-scaling-stroke"/>
	<g id="XMLID_58__1541023384902">
		<path d="M120.7,35.3V21.2h4.2c1.6,0,3,0.6,4.1,1.7c1.1,1.2,1.7,2.6,1.7,4.4v1.7&#10;&#9;&#9;&#9;c0,1.8-0.6,3.3-1.7,4.4c-1.1,1.2-2.5,1.7-4.1,1.7H120.7z M121.2,21.8v13h3.7c1.5,0,2.7-0.5,3.7-1.6c1-1.1,1.5-2.4,1.5-4.1v-1.8&#10;&#9;&#9;&#9;c0-1.6-0.5-3-1.5-4c-1-1.1-2.3-1.6-3.7-1.6H121.2z" class="st3_1541023384902" id="XMLID_389__1541023384902" vector-effect="non-scaling-stroke"/>
		<path d="M135.9,35.3h-0.5V21.2h0.5V35.3z" class="st3_1541023384902" id="XMLID_476__1541023384902" vector-effect="non-scaling-stroke"/>
		<path d="M151,33.4c-0.3,0.5-0.9,1-1.7,1.4c-0.8,0.4-1.9,0.7-3.1,0.7c-1.6,0-2.9-0.6-3.9-1.7&#10;&#9;&#9;&#9;c-1-1.1-1.5-2.6-1.5-4.5V27c0-1.8,0.5-3.2,1.5-4.3c1-1.1,2.2-1.7,3.8-1.7c1.5,0,2.7,0.4,3.6,1.2c0.9,0.8,1.3,1.8,1.3,3l0,0.1h-0.4&#10;&#9;&#9;&#9;c0-1.1-0.4-2-1.2-2.6c-0.8-0.7-1.9-1-3.3-1c-1.4,0-2.6,0.5-3.4,1.5c-0.9,1-1.3,2.3-1.3,3.9v2.3c0,1.7,0.4,3,1.3,4.1&#10;&#9;&#9;&#9;c0.9,1.1,2.1,1.6,3.6,1.6c1.1,0,2.1-0.2,2.8-0.6c0.7-0.4,1.2-0.8,1.5-1.3v-4h-4.3v-0.5h4.8V33.4z" class="st3_1541023384902" id="XMLID_574__1541023384902" vector-effect="non-scaling-stroke"/>
		<path d="M156.8,35.3h-0.5V21.2h0.5V35.3z" class="st3_1541023384902" id="XMLID_578__1541023384902" vector-effect="non-scaling-stroke"/>
		<path d="M171.2,21.8h-4.9v13.6h-0.5V21.8h-5.3v-0.5h10.7V21.8z" class="st3_1541023384902" id="XMLID_601__1541023384902" vector-effect="non-scaling-stroke"/>
		<path d="M181.3,31.1h-6.9l-1.6,4.2h-0.6l5.3-14.1h0.6l5.3,14.1h-0.6L181.3,31.1z M174.6,30.6h6.5&#10;&#9;&#9;&#9;l-3-7.9l-0.3-0.8h-0.1l-0.3,0.8L174.6,30.6z" class="st3_1541023384902" id="XMLID_657__1541023384902" vector-effect="non-scaling-stroke"/>
		<path d="M187.2,34.8h7.6v0.5h-8.1V21.2h0.5V34.8z" class="st3_1541023384902" id="XMLID_704__1541023384902" vector-effect="non-scaling-stroke"/>
	</g>
</g></g></svg>