<?xml version="1.0" standalone="no"?><!-- Generator: Gravit.io --><svg xmlns="http://www.w3.org/2000/svg" xmlns:xlink="http://www.w3.org/1999/xlink" style="isolation:isolate" viewBox="0 0 180.359 73.503" width="180.359" height="73.503"><defs><clipPath id="_clipPath_WIljq4OpBVTMaIMZbR2dATWGwImMFStw"><rect width="180.359" height="73.503"/></clipPath></defs><g clip-path="url(#_clipPath_WIljq4OpBVTMaIMZbR2dATWGwImMFStw)"><rect x="0" y="0" width="180.359" height="73.503" transform="matrix(1,0,0,1,0,0)" fill="none"/><g><g><g><g><path d=" M 28.77 28.186 L 23.512 28.186 L 23.512 44.542 L 18.839 44.542 L 18.839 28.186 L 13.728 28.186 L 13.728 24.681 L 28.77 24.681 L 28.77 28.186 Z " fill="rgb(92,92,92)"/><path d=" M 41.183 38.554 L 41.183 38.554 L 45.71 24.681 L 51.844 24.681 L 51.844 44.542 L 47.171 44.542 L 47.171 31.691 L 47.025 31.691 L 42.644 44.542 L 39.577 44.542 L 35.196 31.837 L 35.05 31.837 L 35.05 44.542 L 30.668 44.542 L 30.668 24.535 L 36.802 24.535 L 41.183 38.554 Z " fill="rgb(92,92,92)"/><path d=" M 68.639 44.542 L 54.765 44.542 L 54.765 41.475 L 60.899 34.757 C 61.775 33.881 62.359 33.005 62.651 32.275 C 63.089 31.545 63.235 30.96 63.235 30.376 C 63.235 29.646 63.089 28.916 62.651 28.478 C 62.359 28.04 61.775 27.748 61.045 27.748 C 60.314 27.748 59.73 28.04 59.438 28.624 C 59 29.208 58.854 29.938 58.854 30.814 L 54.327 30.814 L 54.327 30.668 C 54.327 28.77 54.911 27.309 56.079 25.995 C 57.394 24.681 59 24.097 61.045 24.097 C 63.235 24.097 64.842 24.681 66.156 25.703 C 67.324 26.725 67.908 28.186 67.908 30.084 C 67.908 31.399 67.616 32.421 66.886 33.443 C 66.302 34.465 64.988 35.78 63.235 37.678 L 60.752 40.599 L 60.752 40.599 L 68.493 40.599 L 68.493 44.542 L 68.639 44.542 Z " fill="rgb(92,92,92)"/></g><rect x="1.606" y="12.998" width="0.438" height="47.463" transform="matrix(1,0,0,1,0,0)" fill="rgb(92,92,92)"/><g><path d=" M 75.356 44.688 L 75.356 24.681 L 81.344 24.681 C 83.681 24.681 85.579 25.557 87.186 27.163 C 88.792 28.77 89.522 30.96 89.522 33.443 L 89.522 35.926 C 89.522 38.408 88.792 40.599 87.186 42.205 C 85.579 43.812 83.681 44.688 81.344 44.688 L 75.356 44.688 Z  M 76.087 25.411 L 76.087 43.812 L 81.344 43.812 C 83.389 43.812 85.141 43.082 86.601 41.475 C 88.062 40.015 88.792 38.116 88.792 35.78 L 88.792 33.443 C 88.792 31.106 88.062 29.208 86.601 27.748 C 85.141 26.287 83.389 25.411 81.344 25.411 L 76.087 25.411 Z " fill="rgb(92,92,92)"/><path d=" M 96.824 44.688 L 96.094 44.688 L 96.094 24.681 L 96.824 24.681 L 96.824 44.688 Z " fill="rgb(92,92,92)"/><path d=" M 118.292 41.913 C 117.854 42.644 117.124 43.228 115.809 43.958 C 114.641 44.542 113.181 44.98 111.428 44.98 C 109.092 44.98 107.339 44.104 105.879 42.498 C 104.418 40.891 103.688 38.7 103.688 36.218 L 103.688 33.005 C 103.688 30.522 104.418 28.478 105.733 26.871 C 107.047 25.265 108.946 24.535 111.136 24.535 C 113.327 24.535 114.933 25.119 116.248 26.141 C 117.562 27.163 118.146 28.624 118.146 30.376 L 118.146 30.522 L 117.562 30.522 C 117.562 29.062 116.978 27.748 115.955 26.725 C 114.933 25.703 113.327 25.265 111.282 25.265 C 109.238 25.265 107.631 25.995 106.463 27.455 C 105.295 28.916 104.564 30.814 104.564 33.005 L 104.564 36.218 C 104.564 38.554 105.149 40.453 106.463 42.059 C 107.777 43.52 109.384 44.25 111.428 44.25 C 113.035 44.25 114.349 43.958 115.371 43.52 C 116.394 43.082 117.124 42.351 117.416 41.767 L 117.416 36.072 L 111.282 36.072 L 111.282 35.342 L 118.146 35.342 L 118.146 41.913 L 118.292 41.913 Z " fill="rgb(92,92,92)"/><path d=" M 126.47 44.688 L 125.74 44.688 L 125.74 24.681 L 126.47 24.681 L 126.47 44.688 Z " fill="rgb(92,92,92)"/><path d=" M 146.77 25.411 L 139.76 25.411 L 139.76 44.542 L 139.03 44.542 L 139.03 25.411 L 131.582 25.411 L 131.582 24.681 L 146.77 24.681 L 146.77 25.411 Z " fill="rgb(92,92,92)"/><path d=" M 161.082 38.7 L 151.297 38.7 L 149.106 44.688 L 148.23 44.688 L 155.678 24.827 L 156.554 24.827 L 164.002 44.688 L 163.126 44.688 L 161.082 38.7 Z  M 151.589 37.97 L 160.79 37.97 L 156.554 26.871 L 156.116 25.703 L 155.97 25.703 L 155.532 26.871 L 151.589 37.97 Z " fill="rgb(92,92,92)"/><path d=" M 169.552 43.958 L 180.359 43.958 L 180.359 44.688 L 168.822 44.688 L 168.822 24.681 L 169.552 24.681 L 169.552 43.958 Z " fill="rgb(92,92,92)"/></g></g></g></g></g></svg>