<svg height="511pt" viewBox="0 -35 511.99969 511" width="511pt" xmlns="http://www.w3.org/2000/svg"><path d="m307.34375 7.710938h-288.265625c-6.503906 0-11.824219 5.320312-11.824219 11.824218v402.09375c0 6.566406 5.425782 11.824219 11.824219 11.824219h288.265625c6.40625 0 11.824219-5.261719 11.824219-11.824219 0-5.730468 0-394.828125 0-402.09375 0-6.503906-5.320313-11.824218-11.824219-11.824218zm0 0" fill="#e4eaf8"/><path d="m27.253906 421.628906c0-5.660156 0-394.824218 0-402.09375 0-6.503906 5.320313-11.824218 11.824219-11.824218h-20c-6.503906 0-11.828125 5.320312-11.828125 11.824218v402.09375c0 6.566406 5.425781 11.824219 11.828125 11.824219h20c-6.398437 0-11.824219-5.257813-11.824219-11.824219zm0 0" fill="#ccd2db"/><path d="m307.34375 7.710938h-288.265625c-6.503906 0-11.824219 5.320312-11.824219 11.824218v23.21875h311.917969v-23.21875c-.003906-6.503906-5.324219-11.824218-11.828125-11.824218zm0 0" fill="#54a0ff"/><path d="m52.066406 7.710938h-32.988281c-6.503906 0-11.824219 5.320312-11.824219 11.824218v23.21875h44.816406v-35.042968zm0 0" fill="#ff6b6b"/><path d="m7.25 42.753906h20.003906c0-13.769531 0-22.203125 0-23.21875 0-6.503906 5.320313-11.824218 11.824219-11.824218h-20c-.8125 0-1.609375.082031-2.375.242187-1.921875.394531-3.675781 1.257813-5.136719 2.464844-.445312.371093-.855468.777343-1.242187 1.207031-.3125.34375-.605469.703125-.875 1.082031-.277344.386719-.535157.785157-.765625 1.203125-.183594.335938-.347656.679688-.5 1.035156-.601563 1.414063-.933594 2.964844-.933594 4.589844zm0 0" fill="#ee5253"/><path d="m384.105469 221.34375h-157.867188c-10.5 0-19.09375 8.589844-19.09375 19.09375v94.734375c0 10.503906 8.59375 19.09375 19.09375 19.09375h17.039063c2.519531 0 4.839844 1.367187 6.058594 3.570313l16.148437 29.175781c1.402344 2.53125 5.042969 2.53125 6.445313 0l16.519531-29.847657c.988281-1.789062 2.871093-2.898437 4.917969-2.898437h15.808593v-18.296875c0-3.578125 2.902344-6.480469 6.484375-6.480469h39.238282c3.15625 0 5.71875 2.558594 5.71875 5.71875v6.050781h12.835937c9.144531-.09375 14.527344-3.980468 14.527344-4.652343 4.984375-5.027344 9.363281-10.617188 13.050781-16.660157l2.167969-3.589843v-75.917969c0-10.503906-8.59375-19.09375-19.09375-19.09375zm0 0" fill="#54a0ff"/><path d="m269.335938 357.835938c-1.21875-2.203126-3.539063-3.570313-6.058594-3.570313h-17.039063c-10.5 0-19.09375-8.589844-19.09375-19.09375v-94.734375c0-10.503906 8.59375-19.09375 19.09375-19.09375h-20c-10.5 0-19.09375 8.589844-19.09375 19.09375v94.734375c0 10.5 8.589844 19.09375 19.09375 19.09375h17.039063c2.519531 0 4.839844 1.367187 6.058594 3.570313l16.148437 29.175781c1.402344 2.53125 5.042969 2.53125 6.445313 0l6.777343-12.246094zm0 0" fill="#338def"/><path d="m279.546875 76.566406h-232.671875c-3.121094 0-5.648438 2.527344-5.648438 5.644532v80.511718c0 3.121094 2.53125 5.648438 5.648438 5.648438h232.671875c3.121094 0 5.648437-2.527344 5.648437-5.648438v-80.511718c0-3.117188-2.53125-5.644532-5.648437-5.644532zm0 0" fill="#feca57"/><path d="m61.226562 162.722656v-80.511718c0-3.117188 2.53125-5.644532 5.648438-5.644532h-20c-3.121094 0-5.648438 2.527344-5.648438 5.644532v80.511718c0 3.121094 2.527344 5.648438 5.648438 5.648438h20c-3.117188 0-5.648438-2.527344-5.648438-5.648438zm0 0" fill="#f4b537"/><path d="m444.5625 338.257812h47.496094c6.453125 0 11.949218 5.019532 12.179687 11.464844.242188 6.769532-5.175781 12.335938-11.890625 12.335938h-7.171875c6.71875 0 12.132813 5.566406 11.890625 12.335937-.226562 6.445313-5.722656 11.460938-12.171875 11.460938h-7.167969c6.714844 0 12.132813 5.566406 11.886719 12.335937-.230469 6.449219-5.726562 11.464844-12.175781 11.464844h-4.960938c6.71875 0 12.136719 5.566406 11.894532 12.335938-.234375 6.445312-5.730469 11.460937-12.179688 11.460937h-59.640625c-21.433593 0-19.855469-17.070313-37.082031-17.070313-5.175781 0-9.78125 0-14.851562 0v-78.125h12.839843c9.140625-.09375 14.523438-3.984374 14.523438-4.652343 4.984375-5.027344 9.363281-10.617188 13.050781-16.660157l22.460938-37.214843c2.496093-4.132813 7.5-6.011719 12.097656-4.539063 8.058594 2.574219 12.40625 11.289063 9.625 19.277344l-10.496094 30.117188c-2.25 6.726562 2.753906 13.671874 9.84375 13.671874zm0 0" fill="#ffcdbf"/><g fill="#ffbeab"><path d="m472.191406 418.578125h-59.640625c-21.433593 0-19.855469-17.070313-37.082031-17.070313-5.175781 0-9.78125 0-14.851562 0v14.878907h14.851562c17.226562 0 15.648438 17.066406 37.082031 17.066406h59.640625c6.449219 0 11.945313-5.011719 12.179688-11.460937.105468-3.007813-.90625-5.773438-2.652344-7.925782-2.257812 2.757813-5.71875 4.511719-9.527344 4.511719zm0 0"/><path d="m439.019531 354.570312c0 4.144532 3.359375 7.5 7.503907 7.5h38.925781c-.089844 0-.179688-.011718-.273438-.011718h7.171875c6.714844 0 12.132813-5.5625 11.890625-12.332032-.03125-.921874-.183593-1.804687-.417969-2.65625h-57.296874c-4.144532 0-7.503907 3.359376-7.503907 7.5zm0 0"/><path d="m439.019531 378.371094c0 4.140625 3.359375 7.5 7.503907 7.5h31.46875c-.089844 0-.175782-.015625-.265626-.015625h7.167969c6.449219 0 11.945313-5.011719 12.175781-11.460938.042969-1.222656-.105468-2.40625-.402343-3.523437h-50.144531c-4.144532 0-7.503907 3.359375-7.503907 7.5zm0 0"/><path d="m439.019531 402.171875c0 4.140625 3.359375 7.5 7.503907 7.5h26.226562c-.09375-.003906-.179688-.015625-.273438-.015625h4.960938c6.449219 0 11.945312-5.015625 12.175781-11.460938.046875-1.222656-.101562-2.40625-.402343-3.523437h-42.691407c-4.140625 0-7.5 3.355469-7.5 7.5zm0 0"/></g><path d="m357.898438 326.488281h-22.871094v101.039063h22.871094c3.160156 0 5.71875-2.5625 5.71875-5.71875v-89.605469c0-3.15625-2.558594-5.714844-5.71875-5.714844zm0 0" fill="#e4eaf8"/><path d="m357.898438 326.488281h-22.871094v101.039063h22.871094c3.160156 0 5.71875-2.5625 5.71875-5.71875v-89.605469c0-3.15625-2.558594-5.714844-5.71875-5.714844zm0 0" fill="#e4eaf8"/><path d="m357.898438 407.527344h-22.871094v20h22.871094c3.15625 0 5.71875-2.558594 5.71875-5.71875v-20c0 3.15625-2.558594 5.71875-5.71875 5.71875zm0 0" fill="#ccd2db"/><path d="m312.660156 326.488281c-3.582031 0-6.480468 2.902344-6.480468 6.480469v88.074219c0 3.582031 2.898437 6.484375 6.480468 6.484375h24.367188v-101.039063c-1.246094 0-23.113282 0-24.367188 0zm0 0" fill="#3e4b5a"/><path d="m312.660156 326.488281c-3.582031 0-6.480468 2.902344-6.480468 6.480469v88.074219c0 3.582031 2.898437 6.484375 6.480468 6.484375h24.367188v-101.039063c-1.246094 0-23.113282 0-24.367188 0zm0 0" fill="#3e4b5a"/><path d="m306.179688 401.167969v19.875c0 3.582031 2.898437 6.484375 6.480468 6.484375h24.367188v-19.875c-1.242188 0-23.113282 0-24.367188 0-3.582031 0-6.480468-2.902344-6.480468-6.484375zm0 0" fill="#31404f"/><path d="m265.484375 270.671875c-10.703125-2.164063-20.773437 6.050781-20.773437 17.011719 0 9.570312 7.785156 17.355468 17.355468 17.355468 9.574219 0 17.359375-7.785156 17.359375-17.355468 0-8.328125-5.902343-15.488282-13.941406-17.011719zm-3.417969 19.367187c-1.273437 0-2.351562-1.078124-2.351562-2.355468 0-1.398438 1.261718-2.613282 2.890625-2.289063.894531.167969 1.820312 1.070313 1.820312 2.289063-.003906 1.300781-1.058593 2.355468-2.359375 2.355468zm0 0"/><path d="m306.867188 270.671875c-10.703126-2.164063-20.773438 6.050781-20.773438 17.011719 0 9.570312 7.785156 17.355468 17.355469 17.355468 9.570312 0 17.355469-7.785156 17.355469-17.355468 0-8.328125-5.898438-15.488282-13.9375-17.011719zm-3.417969 19.367187c-1.273438 0-2.355469-1.078124-2.355469-2.355468 0-1.410156 1.273438-2.609375 2.894531-2.289063.894531.167969 1.816407 1.070313 1.816407 2.289063 0 1.300781-1.054688 2.355468-2.355469 2.355468zm0 0"/><path d="m344.832031 305.039062c9.570313 0 17.355469-7.785156 17.355469-17.355468 0-8.328125-5.902344-15.488282-13.9375-17.007813-10.703125-2.167969-20.773438 6.046875-20.773438 17.007813 0 9.570312 7.785157 17.355468 17.355469 17.355468zm.539063-19.644531c.894531.167969 1.816406 1.070313 1.816406 2.289063 0 1.300781-1.058594 2.355468-2.355469 2.355468-1.277343 0-2.355469-1.078124-2.355469-2.355468 0-1.410156 1.273438-2.609375 2.894532-2.289063zm0 0"/><path d="m41.476562 207.070312h243.96875c4.140626 0 7.5-3.359374 7.5-7.5 0-4.144531-3.359374-7.5-7.5-7.5h-243.96875c-4.144531 0-7.5 3.355469-7.5 7.5 0 4.140626 3.355469 7.5 7.5 7.5zm0 0"/><path d="m19.328125 441.246094h126.628906c4.144531 0 7.5-3.359375 7.5-7.5 0-4.144532-3.355469-7.5-7.5-7.5h-126.628906c-2.347656 0-4.328125-1.984375-4.328125-4.328125v-371.375h296.917969v163.589843h-85.429688c-7.058593 0-13.476562 2.769532-18.242187 7.269532h-166.769532c-4.144531 0-7.5 3.359375-7.5 7.5s3.355469 7.5 7.5 7.5h158.773438c-.230469 1.410156-.355469 2.851562-.355469 4.324218v10.007813h-158.417969c-4.144531 0-7.5 3.359375-7.5 7.5 0 4.144531 3.355469 7.5 7.5 7.5h158.417969v14.332031h-158.417969c-4.144531 0-7.5 3.359375-7.5 7.5 0 4.144532 3.355469 7.5 7.5 7.5h158.417969v14.335938h-158.417969c-4.144531 0-7.5 3.355468-7.5 7.5 0 4.140625 3.355469 7.5 7.5 7.5h158.417969v11.0625c0 1.105468.074219 2.195312.207031 3.269531h-158.625c-4.144531 0-7.5 3.355469-7.5 7.5 0 4.140625 3.355469 7.5 7.5 7.5h165.714844c4.847656 5.121094 11.703125 8.324219 19.296875 8.324219h16.699219l3.324219 6.007812h-205.035157c-4.144531 0-7.5 3.359375-7.5 7.5 0 4.144532 3.355469 7.5 7.5 7.5h213.339844l4.355469 7.871094c4.25 7.671875 15.316406 7.679688 19.566406 0l15.984375-28.878906h4.203125v59.277344c0 1.730468.332031 3.378906.90625 4.910156h-118.871093c-4.144532 0-7.5 3.359375-7.5 7.5 0 4.144531 3.355468 7.5 7.5 7.5h126.628906c5.273437 0 10.273437-2.199219 13.875-5.925782h36.683594c6.582031 0 12.035156-4.839843 13.039062-11.144531h4.527344c5.109375 0 7.210937 2.035157 11.027344 5.726563 4.945312 4.789062 11.722656 11.34375 26.058593 11.34375h59.636719c14.871094 0 24.050781-15.34375 17.648438-28.089844 7.003906-5.570312 9.023437-14.90625 5.789062-22.609375 8.214844-5.242187 11.019531-15.441406 7.414062-23.898437 16.015626-10.628907 8.539063-35.597657-10.980468-35.597657h-47.496094c-2.023438 0-3.332031-2.007812-2.765625-3.703125l10.496094-30.117187c2.019531-5.789063 1.621093-12-1.117188-17.488281-7-14.023438-26.03125-16.980469-34.105469-3.59375l-6.371093 10.554687v-45.976563c0-14.664062-11.929688-26.59375-26.59375-26.59375h-57.4375c0-6.253906 0-182.25 0-194.304687 0-10.703125-8.71875-19.328125-19.328125-19.328125-10.769532 0-274.839844 0-288.261719 0-10.65625 0-19.328125 8.667969-19.328125 19.324219v402.09375c0 10.65625 8.671875 19.328125 19.328125 19.328125zm308.449219-20.929688h-13.847656c0-10.015625 0-71.652344 0-86.039062h13.847656zm28.585937 0h-13.585937v-86.039062h13.585937v82.398437zm73.800781-136.421875c2.46875-4.089843 10.589844 1.582031 8.214844 8.398438l-10.527344 30.207031c-3.863281 11.5625 4.761719 23.550781 16.960938 23.550781h47.496094c2.5 0 4.601562 1.898438 4.683594 4.230469.089843 2.515625-1.910157 4.566406-4.398438 4.566406-5.972656 0-39.28125 0-45.824219 0-4.140625 0-7.5 3.359375-7.5 7.5 0 4.144532 3.359375 7.5 7.5 7.5h38.65625c2.484375 0 4.484375 2.050782 4.394531 4.570313-.082031 2.332031-2.183593 4.230469-4.679687 4.230469-13.558594 0-4.066406 0-38.371094 0-4.144531 0-7.5 3.355468-7.5 7.5 0 4.140624 3.355469 7.5 7.5 7.5h31.203125c2.472656 0 4.484375 2.039062 4.394532 4.566406-.082032 2.335937-2.183594 4.230468-4.683594 4.230468-11.449219 0-19.492188 0-30.914063 0-4.144531 0-7.5 3.359376-7.5 7.503907 0 4.140625 3.355469 7.5 7.5 7.5h25.957031c2.507813 0 4.484376 2.078125 4.394532 4.5625-.082032 2.332031-2.183594 4.234375-4.683594 4.234375h-59.640625c-8.265625 0-11.351563-2.988282-15.625-7.125-4.578125-4.429688-10.277344-9.945313-21.457031-9.945313h-4.351563v-63.128906c7.199219 0 16.421875-1.296875 21.582031-6.21875 10.488282-10.007813 15.832032-20.5 37.21875-55.933594zm-34.214843-43.167969v70.828126c-6.972657 11.550781-11.875 15.667968-13.390625 17.433593-3.855469 2.195313-8.53125 2.058594-11.273438 2.058594-.734375-6.714844-6.488281-11.769531-13.136718-11.769531-7.007813 0-38.789063 0-45.597657 0-7.011719 0-13.625 6.097656-13.625 13.980468v13.796876h-5.3125c-4.769531 0-9.167969 2.59375-11.476562 6.769531l-13.183594 23.8125c-2.960937-5.351563 5.28125 9.539062-12.808594-23.140625-2.539062-4.589844-7.375-7.441406-12.621093-7.441406h-17.035157c-6.289062 0-11.59375-5.15625-11.59375-11.589844v-94.738282c0-6.28125 5.117188-11.59375 11.59375-11.59375h157.867188c6.390625 0 11.59375 5.199219 11.59375 11.59375zm-84.03125-220.902343v15.71875h-252.101563v-20.042969h247.773438c2.347656 0 4.328125 1.980469 4.328125 4.324219zm-292.589844-4.324219h25.488281v20.042969h-29.816406v-15.71875c0-2.34375 1.980469-4.324219 4.328125-4.324219zm0 0"/><path d="m285.445312 112.757812c4.140626 0 7.5-3.359374 7.5-7.5v-22.753906c0-7.253906-5.898437-13.148437-13.148437-13.148437h-232.671875c-7.253906 0-13.148438 5.898437-13.148438 13.148437v80.507813c0 7.25 5.894532 13.148437 13.148438 13.148437h232.671875c7.25 0 13.144531-5.898437 13.144531-13.148437v-22.753907c0-4.140624-3.355468-7.5-7.5-7.5-4.140625 0-7.5 3.359376-7.5 7.5v20.902344h-228.964844v-76.804687h228.964844v20.902343c0 4.140626 3.359375 7.5 7.503906 7.5zm0 0"/></svg>