<?xml version="1.0" encoding="iso-8859-1"?>
<!-- Generator: Adobe Illustrator 18.0.0, SVG Export Plug-In . SVG Version: 6.00 Build 0)  -->
<!DOCTYPE svg PUBLIC "-//W3C//DTD SVG 1.1//EN" "http://www.w3.org/Graphics/SVG/1.1/DTD/svg11.dtd">
<svg version="1.1" id="Capa_1" xmlns="http://www.w3.org/2000/svg" xmlns:xlink="http://www.w3.org/1999/xlink" x="0px" y="0px"
	 viewBox="0 0 405.558 405.558" style="enable-background:new 0 0 405.558 405.558;" xml:space="preserve">
<g>
	<g>
		<path style="fill:none;" d="M202.778,176.515c-14.481,0-26.263,11.781-26.263,26.264c0,14.482,11.781,26.264,26.263,26.264
			c14.482,0,26.265-11.781,26.265-26.264C229.043,188.296,217.261,176.515,202.778,176.515z"/>
		<path style="fill:none;" d="M117.752,119.257c-16.043,4.727-30.87,10.826-43.997,18.201C41.67,155.482,24,178.679,24,202.779
			c0,24.098,17.67,47.295,49.755,65.318c13.127,7.375,27.953,13.475,43.995,18.201c-21.151-21.531-34.222-51.025-34.222-83.52
			C83.528,170.283,96.599,140.789,117.752,119.257z"/>
		<path style="fill:none;" d="M331.803,137.458c-13.127-7.375-27.954-13.475-43.997-18.201
			c21.152,21.531,34.223,51.025,34.223,83.521c0,32.494-13.069,61.988-34.221,83.52c16.043-4.727,30.869-10.826,43.995-18.201
			c32.085-18.023,49.755-41.221,49.755-65.318C381.558,178.679,363.888,155.482,331.803,137.458z"/>
		<path style="fill:#3D6889;" d="M343.558,116.533c-36.61-20.566-84.664-32.184-135.791-32.893
			c-1.654-0.068-3.315-0.111-4.986-0.111c-1.67,0-3.329,0.043-4.982,0.111c-51.129,0.709-99.186,12.326-135.797,32.893
			C22.018,138.994,0,169.623,0,202.779c0,33.154,22.018,63.783,62.001,86.244c36.599,20.561,84.633,32.176,135.741,32.893
			c1.672,0.068,3.35,0.113,5.038,0.113c1.689,0,3.369-0.045,5.042-0.115c51.107-0.717,99.138-12.332,135.735-32.891
			c39.982-22.461,62-53.09,62-86.244C405.558,169.623,383.539,138.994,343.558,116.533z M73.755,268.097
			C41.67,250.074,24,226.876,24,202.779c0-24.1,17.67-47.297,49.755-65.32c13.127-7.375,27.954-13.475,43.997-18.201
			c-21.153,21.531-34.224,51.025-34.224,83.521c0,32.494,13.07,61.988,34.222,83.52C101.708,281.572,86.882,275.472,73.755,268.097z
			 M207.263,297.919c-1.492,0.02-2.986,0.031-4.484,0.031c-1.496,0-2.989-0.012-4.479-0.031
			c-50.45-2.348-90.771-44.123-90.771-95.141c0-51.029,40.338-92.811,90.802-95.143c1.48-0.02,2.962-0.031,4.448-0.031
			c1.487,0,2.972,0.012,4.453,0.031c50.461,2.332,90.797,44.113,90.797,95.143C298.028,253.796,257.709,295.572,207.263,297.919z
			 M331.803,268.097c-13.126,7.375-27.952,13.475-43.995,18.201c21.151-21.531,34.221-51.025,34.221-83.52
			c0-32.496-13.07-61.99-34.223-83.521c16.043,4.727,30.87,10.826,43.997,18.201c32.085,18.023,49.755,41.221,49.755,65.32
			C381.558,226.876,363.888,250.074,331.803,268.097z"/>
		<path style="fill:#73D0F4;" d="M207.231,107.636c-1.481-0.02-2.966-0.031-4.453-0.031c-1.486,0-2.969,0.012-4.448,0.031
			c-50.464,2.332-90.802,44.113-90.802,95.143c0,51.018,40.32,92.793,90.771,95.141c1.49,0.02,2.983,0.031,4.479,0.031
			c1.498,0,2.992-0.012,4.484-0.031c50.446-2.348,90.766-44.123,90.766-95.141C298.028,151.749,257.692,109.968,207.231,107.636z
			 M202.778,253.042c-27.715,0-50.263-22.549-50.263-50.264s22.548-50.264,50.263-50.264c27.716,0,50.265,22.549,50.265,50.264
			S230.494,253.042,202.778,253.042z"/>
		<path style="fill:#3D6889;" d="M202.778,152.515c-27.715,0-50.263,22.549-50.263,50.264s22.548,50.264,50.263,50.264
			c27.716,0,50.265-22.549,50.265-50.264S230.494,152.515,202.778,152.515z M202.778,229.042c-14.481,0-26.263-11.781-26.263-26.264
			c0-14.482,11.781-26.264,26.263-26.264c14.482,0,26.265,11.781,26.265,26.264C229.043,217.261,217.261,229.042,202.778,229.042z"
			/>
	</g>
</g>
<g>
</g>
<g>
</g>
<g>
</g>
<g>
</g>
<g>
</g>
<g>
</g>
<g>
</g>
<g>
</g>
<g>
</g>
<g>
</g>
<g>
</g>
<g>
</g>
<g>
</g>
<g>
</g>
<g>
</g>
</svg>
