<svg id="Layer_5" enable-background="new 0 0 64 64" height="512" viewBox="0 0 64 64" width="512" xmlns="http://www.w3.org/2000/svg"><path d="m26 56h12c1.1 0 2-.9 2-2h20v-34c0-2.209-1.791-4-4-4h-48c-2.209 0-4 1.791-4 4v34h20c0 1.1.9 2 2 2z" fill="#ccd1d9"/><path d="m62 54v4c0 2.21-1.79 4-4 4h-52c-2.21 0-4-1.79-4-4v-4h2 20c0 1.1.9 2 2 2h12c1.1 0 2-.9 2-2h20z" fill="#969faa"/><path d="m55 50h-46c-.552 0-1-.448-1-1v-28c0-.552.448-1 1-1h46c.552 0 1 .448 1 1v28c0 .552-.448 1-1 1z" fill="#69d6f4"/><path d="m62 7-9 9-4 4-3 3-5-5 16-16c1.38 0 2.63.56 3.54 1.46.9.91 1.46 2.16 1.46 3.54z" fill="#d3a06c"/><path d="m45.98 23.02 4 8-2.98 2.98-1-1-3-3-3-3-3-3-3-3-3.82-3.82h-.01c.08-.19.15-.38.22-.57l2.59-2.59 8 4 .02-.02 5 5z" fill="#dfb28b"/><g fill="#e6e9ed"><path d="m30.18 17.18 3.82 3.82-6.02 5.27c.01-.09.02-.18.02-.27 0-1.1-.9-2-2-2h-.87c.21-.85.68-1.63 1.4-2.16 1.6-1.18 2.87-2.79 3.64-4.66z"/><path d="m31.222 34.879h15.556v4.243h-15.556z" transform="matrix(.707 -.707 .707 .707 -14.74 38.414)"/><path d="m28.222 31.879h15.556v4.243h-15.556z" transform="matrix(.707 -.707 .707 .707 -13.498 35.414)"/><path d="m40 27-11 11-2-2-1-1 11-11z"/><path d="m26 28c.55 0 1.05-.22 1.41-.59.31-.3.51-.7.57-1.14l6.02-5.27 3 3-11 11-3.36-3.36c1.39-.62 2.36-2.02 2.36-3.64z"/></g><path d="m15 28h10c0 1.62-.97 3.02-2.36 3.64-.5.23-1.06.36-1.64.36h-2c-2.21 0-4-1.79-4-4z" fill="#969faa"/><path d="m26 24c1.1 0 2 .9 2 2 0 .09-.01.18-.02.27-.06.44-.26.84-.57 1.14-.36.37-.86.59-1.41.59h-1-10-1c-1.1 0-2-.9-2-2 0-.55.22-1.05.59-1.41.36-.37.86-.59 1.41-.59h.87 5.13 5.13z" fill="#aab2bd"/><path d="m20 24h-5.13c-.22-.87-.71-1.65-1.44-2.19-.71-.53-1.35-1.13-1.91-1.81-.96-1.16-1.69-2.51-2.1-4-.42-1.48-.54-3.09-.28-4.75.74-4.82 4.75-8.64 9.59-9.18 6.65-.74 12.27 4.44 12.27 10.93 0 1.27-.21 2.48-.61 3.61-.07.19-.14.38-.22.57-.77 1.87-2.04 3.48-3.64 4.66-.72.53-1.19 1.31-1.4 2.16z" fill="#ffeaa7"/><circle cx="20" cy="13" fill="#ff826e" r="3"/><path d="m55 57h2v2h-2z"/><path d="m51 57h2v2h-2z"/><path d="m47 57h2v2h-2z"/><path d="m63 7c0-3.309-2.691-6-6-6h-.414l-15.8 15.8-8-4-.823.823c.011-.208.037-.414.037-.623 0-3.41-1.458-6.671-4.002-8.946-2.541-2.272-5.957-3.358-9.376-2.977-5.265.588-9.67 4.802-10.475 10.021-.203 1.318-.183 2.633.033 3.902h-.18c-2.757 0-5 2.243-5 5v33h-2v5c0 2.757 2.243 5 5 5h52c2.757 0 5-2.243 5-5v-5h-2v-33c0-2.757-2.243-5-5-5h-.586l7.586-7.586zm-29.82 8.234 7.279 3.64 4.667 4.667 3.64 7.279-1.766 1.766-15.586-15.586zm16.234 5.766h5.586v28h-46v-28h2.069c.526.587 1.113 1.129 1.76 1.612.181.135.338.3.482.476-1.321.312-2.311 1.496-2.311 2.912 0 1.654 1.346 3 3 3h.101c.465 2.279 2.484 4 4.899 4h2c.479 0 .932-.089 1.371-.215l12.629 12.629 11-11 1 1 4.2-4.2-4-8zm-29.414-6c-1.103 0-2-.897-2-2s.897-2 2-2 2 .897 2 2-.897 2-2 2zm6 10c.551 0 1 .449 1 1s-.449 1-1 1h-12c-.551 0-1-.449-1-1s.449-1 1-1zm2.873 1.815 5.081-4.446 1.632 1.631-9.586 9.586-1.787-1.787c.841-.712 1.458-1.68 1.686-2.799h.101c1.37 0 2.516-.928 2.873-2.185zm15.713 6.185-9.586 9.586-1.586-1.586 9.586-9.586zm-12.586 6.586-1.586-1.586 9.586-9.586 1.586 1.586zm-3-3-1.586-1.586 9.586-9.586 1.586 1.586zm-8-5.586h-2c-1.302 0-2.402-.839-2.816-2h7.631c-.413 1.161-1.513 2-2.815 2zm11.537-10.049-3.987 3.489c-.414-.674-1.08-1.171-1.872-1.356.134-.164.28-.316.447-.439 1.381-1.02 2.493-2.326 3.316-3.79zm-22.413-9.549c.67-4.341 4.337-7.848 8.72-8.338 2.895-.324 5.672.558 7.821 2.48 2.119 1.897 3.335 4.614 3.335 7.456 0 3.199-1.481 6.128-4.064 8.037-.667.493-1.19 1.175-1.523 1.963h-3.413v-6.142c1.72-.447 3-2 3-3.858 0-2.206-1.794-4-4-4s-4 1.794-4 4c0 1.858 1.28 3.411 3 3.858v6.142h-3.419c-.34-.791-.874-1.483-1.556-1.991-2.978-2.223-4.473-5.904-3.901-9.607zm50.876 46.598c0 1.654-1.346 3-3 3h-52c-1.654 0-3-1.346-3-3v-3h20.171c.413 1.164 1.525 2 2.829 2h12c1.304 0 2.416-.836 2.829-2h20.171zm-5-41c1.654 0 3 1.346 3 3v33h-20v1c0 .551-.449 1-1 1h-12c-.551 0-1-.449-1-1v-1h-20v-33c0-1.654 1.346-3 3-3h.701c.245.693.549 1.363.917 2h-.618c-1.103 0-2 .897-2 2v28c0 1.103.897 2 2 2h46c1.103 0 2-.897 2-2v-28c0-1.103-.897-2-2-2h-3.586l2-2zm-10 4.586-3.586-3.586 14.981-14.98c1.891.186 3.399 1.695 3.585 3.585z"/><path d="m11 37h14v2h-14z"/><path d="m11 41h14v2h-14z"/><path d="m11 45h2v2h-2z"/><path d="m15 45h2v2h-2z"/><path d="m19 45h2v2h-2z"/><path d="m23 45h2v2h-2z"/><path d="m51 33h2v2h-2z"/><path d="m51 45h-4v2h6v-10h-2z"/></svg>