<?xml version="1.0" encoding="iso-8859-1"?>
<!-- Generator: Adobe Illustrator 19.0.0, SVG Export Plug-In . SVG Version: 6.00 Build 0)  -->
<svg version="1.1" id="Layer_1" xmlns="http://www.w3.org/2000/svg" xmlns:xlink="http://www.w3.org/1999/xlink" x="0px" y="0px"
	 viewBox="0 0 512 512" style="enable-background:new 0 0 512 512;" xml:space="preserve">
<path style="fill:#FF8A65;" d="M504.206,193.111C476.173,82.135,375.683,0,256,0C114.615,0,0,114.616,0,256
	c0,129.195,95.709,236.018,220.089,253.481L504.206,193.111z"/>
<path style="fill:#FF5722;" d="M178.087,467.478l42.003,42.003C231.825,511.128,243.81,512,256,512c141.384,0,256-114.615,256-256
	c0-21.701-2.711-42.768-7.794-62.889L377.878,66.783L178.087,467.478z"/>
<path d="M377.878,333.913H293.07l18.582,111.304c24.588,0,44.522-19.934,44.522-44.522v-28.552
	C369.172,364.369,377.878,350.16,377.878,333.913z"/>
<path d="M377.878,200.348H293.07l18.582,111.304c24.588,0,44.522-19.934,44.522-44.522v-28.552
	C369.172,230.804,377.878,216.595,377.878,200.348z"/>
<path d="M377.878,66.783H293.07l18.582,111.304c24.588,0,44.522-19.933,44.522-44.522v-28.552
	C369.172,97.239,377.878,83.03,377.878,66.783z"/>
<g>
	<path style="fill:#263238;" d="M134.122,333.913h84.808l-18.582,111.304c-24.588,0-44.522-19.934-44.522-44.522v-28.552
		C142.828,364.369,134.122,350.16,134.122,333.913z"/>
	<path style="fill:#263238;" d="M134.122,200.348h84.808l-18.582,111.304c-24.588,0-44.522-19.934-44.522-44.522v-28.552
		C142.828,230.804,134.122,216.595,134.122,200.348z"/>
	<path style="fill:#263238;" d="M134.122,66.783h84.808l-18.582,111.304c-24.588,0-44.522-19.933-44.522-44.522v-28.552
		C142.828,97.239,134.122,83.03,134.122,66.783z"/>
	<polygon style="fill:#263238;" points="256,44.522 211.158,256 256,467.478 333.913,467.478 333.913,44.522 	"/>
</g>
<rect x="178.087" y="44.522" style="fill:#455A64;" width="77.913" height="422.957"/>
<path style="fill:#00BCD4;" d="M311.652,122.435c0-30.736-24.917-55.652-55.652-55.652l-22.486,55.652L256,178.087
	C286.736,178.087,311.652,153.17,311.652,122.435z"/>
<path style="fill:#FF5722;" d="M311.652,389.565c0-30.736-24.917-55.652-55.652-55.652l-22.486,55.652L256,445.217
	C286.736,445.217,311.652,420.301,311.652,389.565z"/>
<path style="fill:#FF8A65;" d="M200.348,389.565c0,30.736,24.917,55.652,55.652,55.652V333.913
	C225.264,333.913,200.348,358.83,200.348,389.565z"/>
<path style="fill:#FFEB3B;" d="M311.652,256c0-30.736-24.917-55.652-55.652-55.652L233.514,256L256,311.652
	C286.736,311.652,311.652,286.736,311.652,256z"/>
<path style="fill:#FFF9C4;" d="M200.348,256c0,30.736,24.917,55.652,55.652,55.652V200.348
	C225.264,200.348,200.348,225.264,200.348,256z"/>
<path style="fill:#80DEEA;" d="M200.348,122.435c0,30.736,24.917,55.652,55.652,55.652V66.783
	C225.264,66.783,200.348,91.699,200.348,122.435z"/>
<g>
</g>
<g>
</g>
<g>
</g>
<g>
</g>
<g>
</g>
<g>
</g>
<g>
</g>
<g>
</g>
<g>
</g>
<g>
</g>
<g>
</g>
<g>
</g>
<g>
</g>
<g>
</g>
<g>
</g>
</svg>
