<?xml version="1.0" encoding="iso-8859-1"?>
<!-- Generator: Adobe Illustrator 19.0.0, SVG Export Plug-In . SVG Version: 6.00 Build 0)  -->
<svg version="1.1" id="Layer_1" xmlns="http://www.w3.org/2000/svg" xmlns:xlink="http://www.w3.org/1999/xlink" x="0px" y="0px"
	 viewBox="0 0 511.983 511.983" style="enable-background:new 0 0 511.983 511.983;" xml:space="preserve">
<circle style="fill:#6BC9EF;" cx="255.991" cy="255.991" r="255.991"/>
<path style="fill:#59B8DE;" d="M503.372,322.054C474.9,428.997,378.929,508.395,263.849,511.86L140.263,390.479l-0.56-172.218
	l129.921-0.717v-96.023l115.606,115.606v-33.233L503.372,322.054z"/>
<path style="fill:#F8F8F8;" d="M190.523,333.149l-44.73,54.723c-1.383,1.698-3.308,2.608-5.53,2.608c-2.205,0-4.13-0.91-5.513-2.608
	l-44.73-54.723c-1.785-2.17-2.118-5.005-0.91-7.56c1.208-2.538,3.623-4.078,6.423-4.078h31.115l0.123-117.618
	c0.07-6.195,4.778-10.92,10.938-11.218h104.686v-71.155h27.23v71.155h104.668c6.16,0.298,10.868,5.023,10.938,11.218l0.122,117.618
	h31.115c2.818,0,5.233,1.54,6.44,4.078c1.208,2.555,0.84,5.408-0.928,7.56l-44.73,54.723c-1.383,1.698-3.308,2.608-5.513,2.608
	s-4.13-0.892-5.513-2.608l-44.73-54.723c-3.815-4.655-0.508-11.638,5.513-11.638h31.115c0-23.713-0.122-74.025-0.122-97.668
	c-0.07-4.078-2.328-4.043-6.405-3.938c-53.113,0-138.076,0-191.171,0c-4.078-0.105-6.335-0.14-6.423,3.938
	c0,23.643-0.122,73.955-0.122,97.668h31.115C191.013,321.512,194.303,328.512,190.523,333.149z"/>
<g>
</g>
<g>
</g>
<g>
</g>
<g>
</g>
<g>
</g>
<g>
</g>
<g>
</g>
<g>
</g>
<g>
</g>
<g>
</g>
<g>
</g>
<g>
</g>
<g>
</g>
<g>
</g>
<g>
</g>
</svg>
