<svg height="512" viewBox="0 0 64 64" width="512" xmlns="http://www.w3.org/2000/svg"><g id="_23-Ticket" data-name="23-Ticket"><path d="m61 26.234v-11.952h-40.155v35.436h40.155v-11.952a5.766 5.766 0 0 1 0-11.532z" fill="#4370ff"/><path d="m26.845 22h22.389v4h-22.389z"/><path d="m26.845 30h22.389v4h-22.389z"/><path d="m26.845 38h22.389v4h-22.389z"/><path d="m61 28.234h2v-15.953h-36.155v4h32.155v8.219a7.767 7.767 0 0 0 0 15.01v8.214h-36.155v-35.443h-21.845v15.953h2a3.766 3.766 0 1 1 0 7.532h-2v15.953h13.845v-4h-9.845v-8.214a7.767 7.767 0 0 0 0-15.005v-8.219h13.845v35.438h44.155v-15.953h-2a3.766 3.766 0 0 1 0-7.532z"/></g></svg>