<?xml version="1.0" standalone="no"?>
<svg xmlns="http://www.w3.org/2000/svg" version="1.2" overflow="visible" preserveAspectRatio="none" viewBox="0 0 24 24" width="24" height="24"><g><defs xmlns:default="http://www.w3.org/2000/svg">
        <path d="M0 0h24v24H0V0z" id="a" style="fill: rgb(92, 92, 92);"/>
    </defs><clipPath xmlns:default="http://www.w3.org/2000/svg" xmlns:xlink="http://www.w3.org/1999/xlink" id="b">
        <use overflow="visible" xlink:href="#a"/>
    </clipPath><path xmlns:default="http://www.w3.org/2000/svg" clip-path="url(#b)" d="M12 17c1.1 0 2-.9 2-2s-.9-2-2-2-2 .9-2 2 .9 2 2 2zm6-9h-1V6c0-2.76-2.24-5-5-5S7 3.24 7 6v2H6c-1.1 0-2 .9-2 2v10c0 1.1.9 2 2 2h12c1.1 0 2-.9 2-2V10c0-1.1-.9-2-2-2zM8.9 6c0-1.71 1.39-3.1 3.1-3.1s3.1 1.39 3.1 3.1v2H8.9V6zM18 20H6V10h12v10z" style="fill: rgb(92, 92, 92);"/></g></svg>